HIERARCHY
ROOT Hips
{
	OFFSET 0.00000 0.00000 0.00000
	CHANNELS 6 Xposition Yposition Zposition Zrotation Yrotation Xrotation 
	JOINT LHipJoint
	{
		OFFSET 0 0 0
		CHANNELS 3 Zrotation Yrotation Xrotation
		JOINT LeftUpLeg
		{
			OFFSET 1.58161 -1.81893 0.78828
			CHANNELS 3 Zrotation Yrotation Xrotation
			JOINT LeftLeg
			{
				OFFSET 2.53374 -6.96141 0.00000
				CHANNELS 3 Zrotation Yrotation Xrotation
				JOINT LeftFoot
				{
					OFFSET 2.63509 -7.23986 0.00000
					CHANNELS 3 Zrotation Yrotation Xrotation
					JOINT LeftToeBase
					{
						OFFSET 0.14115 -0.38781 2.05350
						CHANNELS 3 Zrotation Yrotation Xrotation
						End Site
						{
							OFFSET 0.00000 -0.00000 1.05543
						}
					}
				}
			}
		}
	}
	JOINT RHipJoint
	{
		OFFSET 0 0 0
		CHANNELS 3 Zrotation Yrotation Xrotation
		JOINT RightUpLeg
		{
			OFFSET -1.11138 -1.81893 0.78828
			CHANNELS 3 Zrotation Yrotation Xrotation
			JOINT RightLeg
			{
				OFFSET -2.58392 -7.09926 0.00000
				CHANNELS 3 Zrotation Yrotation Xrotation
				JOINT RightFoot
				{
					OFFSET -2.66423 -7.31992 0.00000
					CHANNELS 3 Zrotation Yrotation Xrotation
					JOINT RightToeBase
					{
						OFFSET -0.18831 -0.51739 2.12114
						CHANNELS 3 Zrotation Yrotation Xrotation
						End Site
						{
							OFFSET -0.00000 -0.00000 1.09845
						}
					}
				}
			}
		}
	}
	JOINT LowerBack
	{
		OFFSET 0 0 0
		CHANNELS 3 Zrotation Yrotation Xrotation
		JOINT Spine
		{
			OFFSET -0.01511 1.97958 -0.08829
			CHANNELS 3 Zrotation Yrotation Xrotation
			JOINT Spine1
			{
				OFFSET 0.08344 1.97334 -0.04330
				CHANNELS 3 Zrotation Yrotation Xrotation
				JOINT Neck
				{
					OFFSET 0 0 0
					CHANNELS 3 Zrotation Yrotation Xrotation
					JOINT Neck1
					{
						OFFSET 0.00559 1.76246 0.31246
						CHANNELS 3 Zrotation Yrotation Xrotation
						JOINT Head
						{
							OFFSET -0.07011 1.80354 -0.30524
							CHANNELS 3 Zrotation Yrotation Xrotation
							End Site
							{
								OFFSET -0.02385 1.83547 -0.13906
							}
						}
					}
				}
				JOINT LeftShoulder
				{
					OFFSET 0 0 0
					CHANNELS 3 Zrotation Yrotation Xrotation
					JOINT LeftArm
					{
						OFFSET 3.20667 1.30156 -0.60240
						CHANNELS 3 Zrotation Yrotation Xrotation
						JOINT LeftForeArm
						{
							OFFSET 4.95663 -0.00000 0.00000
							CHANNELS 3 Zrotation Yrotation Xrotation
							JOINT LeftHand
							{
								OFFSET 3.38177 -0.00000 0.00000
								CHANNELS 3 Zrotation Yrotation Xrotation
								JOINT LeftFingerBase
								{
									OFFSET 0 0 0
									CHANNELS 3 Zrotation Yrotation Xrotation
									JOINT LeftHandIndex1
									{
										OFFSET 0.66291 -0.00000 0.00000
										CHANNELS 3 Zrotation Yrotation Xrotation
										End Site
										{
											OFFSET 0.53445 -0.00000 0.00000
										}
									}
								}
								JOINT LThumb
								{
									OFFSET 0 0 0
									CHANNELS 3 Zrotation Yrotation Xrotation
									End Site
									{
										OFFSET 0.54261 -0.00000 0.54261
									}
								}
							}
						}
					}
				}
				JOINT RightShoulder
				{
					OFFSET 0 0 0
					CHANNELS 3 Zrotation Yrotation Xrotation
					JOINT RightArm
					{
						OFFSET -3.06877 1.34672 -0.60964
						CHANNELS 3 Zrotation Yrotation Xrotation
						JOINT RightForeArm
						{
							OFFSET -5.08365 -0.00000 0.00000
							CHANNELS 3 Zrotation Yrotation Xrotation
							JOINT RightHand
							{
								OFFSET -3.35984 -0.00000 0.00000
								CHANNELS 3 Zrotation Yrotation Xrotation
								JOINT RightFingerBase
								{
									OFFSET 0 0 0
									CHANNELS 3 Zrotation Yrotation Xrotation
									JOINT RightHandIndex1
									{
										OFFSET -0.82076 -0.00000 0.00000
										CHANNELS 3 Zrotation Yrotation Xrotation
										End Site
										{
											OFFSET -0.66172 -0.00000 0.00000
										}
									}
								}
								JOINT RThumb
								{
									OFFSET 0 0 0
									CHANNELS 3 Zrotation Yrotation Xrotation
									End Site
									{
										OFFSET -0.67182 -0.00000 0.67182
									}
								}
							}
						}
					}
				}
			}
		}
	}
}
MOTION
Frames: 13
Frame Time: .0083333
-0.6842 17.6473 -4.2296 19.5095 28.1633 65.8114 0.0000 0.0000 0.0000 -6.6027 -14.4582 -39.4777 2.0345 8.9376 25.6003 0.2044 -4.1048 11.0579 0.5006 -4.5358 -12.5891 0.0000 0.0000 0.0000 -0.1458 5.0783 -86.3551 -4.0882 -12.2769 36.7186 -0.1053 -0.9163 -6.5365 -0.5556 -4.7748 13.2673 5.9434 4.3316 27.5765 11.1963 7.5810 14.3031 6.9665 3.6790 0.0924 -3.1621 -12.6650 -15.1144 -1.4059 -16.4803 1.7248 -1.1902 -8.3772 3.3076 0.0000 -0.0000 0.0000 -86.7911 -5.8316 50.7274 62.3767 -56.9107 -36.3256 -0.0000 0.0000 -14.1829 11.4965 24.7001 4.8579 -7.1250 0.0000 -0.0000 -18.8896 54.1150 -4.3506 0.0000 -0.0000 0.0000 -15.7706 46.4931 -33.6597 -11.6473 19.2736 -1.9843 0.0000 -0.0000 -0.7945 -25.6815 10.2701 -4.9002 7.1250 -0.0000 -0.0000 0.9542 -18.6128 0.5998
-0.6998 17.6076 -4.2182 20.0360 28.1518 68.2354 0.0000 0.0000 0.0000 -5.9042 -14.9214 -41.5359 2.0842 9.0392 25.9180 0.2685 -3.9251 12.0370 0.3995 -4.0583 -11.2408 0.0000 0.0000 0.0000 -1.1214 4.9901 -88.5443 -4.0769 -12.2621 36.6655 -0.0822 -1.5692 -6.2326 -0.6161 -5.0233 13.9751 5.9713 4.3779 25.6304 11.1699 7.4434 14.1214 7.0716 3.6248 0.8124 -3.0549 -12.7217 -15.0190 -1.2655 -16.6174 1.1101 -1.1307 -8.4477 3.0744 -0.0000 0.0000 0.0000 -86.7666 -5.7660 50.7348 62.1415 -56.8541 -36.1286 -0.0000 0.0000 -14.2722 11.2136 24.3142 4.6666 -7.1250 0.0000 -0.0000 -18.9572 53.6973 -4.1704 -0.0000 0.0000 0.0000 -17.5101 46.1324 -35.6638 -11.4899 19.0353 -1.9327 0.0000 0.0000 0.4019 -26.1652 10.2809 -5.0112 7.1250 -0.0000 -0.0000 0.6130 -18.5548 0.3861
-0.7196 17.5576 -4.2098 20.6512 28.1838 70.7877 0.0000 0.0000 0.0000 -5.1568 -15.3392 -43.8384 2.1622 9.1961 26.4106 0.3280 -3.7183 12.8372 0.2891 -3.4575 -9.5553 0.0000 0.0000 0.0000 -2.1387 4.7830 -90.8416 -4.0728 -12.2567 36.6461 -0.0559 -2.2499 -5.8822 -0.6423 -5.1271 14.2715 5.9130 4.4030 23.5812 11.1594 7.2609 13.8880 7.2614 3.5430 1.5372 -2.7939 -12.7337 -14.9134 -1.2730 -16.7190 0.4256 -1.1296 -8.5072 2.7886 0.0000 -0.0000 0.0000 -86.7350 -5.7753 50.7008 61.7059 -56.7476 -35.7641 -0.0000 0.0000 -14.0224 11.0126 24.3280 4.5837 -7.1250 0.0000 -0.0000 -19.1612 53.6739 -4.2067 0.0000 -0.0000 0.0000 -19.2633 45.7204 -37.3830 -11.3602 18.8383 -1.8906 0.0000 0.0000 1.2955 -26.5187 10.2852 -5.0913 7.1250 -0.0000 -0.0000 0.3636 -18.5157 0.2293
-0.7335 17.5217 -4.1852 21.1917 28.2713 72.5063 0.0000 0.0000 0.0000 -4.6611 -15.4869 -45.2111 2.2404 9.3499 26.8960 0.3535 -3.9020 13.3543 0.2596 -3.2783 -9.0545 0.0000 0.0000 0.0000 -2.8877 4.5753 -92.2256 -4.0755 -12.2602 36.6587 -0.0407 -2.7629 -5.8150 -0.6410 -5.1221 14.2571 6.0379 4.3673 22.5196 11.1877 7.1341 13.7767 7.3216 3.4901 1.9532 -2.6778 -12.7425 -14.8241 -1.1948 -16.7857 -0.1198 -1.0889 -8.5450 2.5781 0.0000 0.0000 0.0000 -86.6095 -5.7782 50.8510 61.7109 -56.7489 -35.7683 -0.0000 0.0000 -13.7120 10.9823 25.2803 4.7374 -7.1250 0.0000 -0.0000 -19.7213 54.5673 -4.7751 0.0000 0.0000 0.0000 -20.9330 45.3066 -39.1441 -11.1953 18.5869 -1.8377 0.0000 0.0000 2.2675 -26.9922 10.2947 -5.2011 7.1250 -0.0000 -0.0000 0.0300 -18.4584 0.0190
-0.7453 17.5024 -4.1454 21.3015 28.2726 73.3545 0.0000 0.0000 0.0000 -4.3794 -15.1271 -45.7022 2.2958 9.4569 27.2352 0.3544 -4.3151 13.6716 0.2616 -3.2905 -9.0887 0.0000 0.0000 0.0000 -3.3524 4.7508 -92.9076 -4.0860 -12.2740 36.7081 -0.0335 -3.0065 -5.7997 -0.3462 -3.7804 10.4597 6.1605 4.4685 22.2812 11.2715 7.2490 13.8178 7.3445 3.5468 2.1129 -2.8546 -12.7606 -14.7416 -0.9607 -16.8080 -0.4946 -0.9685 -8.5532 2.4709 -0.0000 -0.0000 0.0000 -86.5098 -5.7565 51.0020 61.4787 -56.6913 -35.5742 -0.0000 0.0000 -13.8007 10.9649 24.7015 4.6288 -7.1250 0.0000 -0.0000 -19.4123 54.0183 -4.4315 -0.0000 -0.0000 0.0000 -22.5058 44.8035 -40.7744 -11.0199 18.3187 -1.7822 0.0000 0.0000 3.2647 -27.7104 9.9880 -5.2052 7.1250 -0.0000 -0.0000 -0.4977 -18.7292 -0.3115
-0.7519 17.4770 -4.1161 21.8554 28.2525 74.5017 0.0000 0.0000 0.0000 -4.1608 -15.3737 -46.1703 2.3270 9.5162 27.4240 0.3643 -4.2797 13.7877 0.2507 -3.2216 -8.8963 0.0000 0.0000 0.0000 -4.1943 4.5534 -93.6572 -4.1040 -12.2975 36.7928 -0.0213 -3.4685 -5.8642 -0.1413 -2.4225 6.6748 6.2890 4.4573 21.9395 11.3394 7.2304 13.7273 7.3716 3.5424 2.1894 -2.9590 -12.8019 -14.6179 -0.7830 -16.8734 -0.8442 -0.8767 -8.5846 2.3538 0.0000 -0.0000 0.0000 -86.4769 -5.6643 51.3153 61.2035 -56.6222 -35.3443 -0.0000 0.0000 -13.7684 11.0650 24.5375 4.6430 -7.1250 0.0000 -0.0000 -19.2240 53.8817 -4.3207 0.0000 -0.0000 0.0000 -23.8546 44.1686 -41.7578 -10.8979 18.1315 -1.7440 0.0000 0.0000 3.9405 -28.4220 9.4611 -5.0837 7.1250 -0.0000 -0.0000 -1.0387 -19.2514 -0.6383
-0.7611 17.4468 -4.0876 22.3412 28.1840 75.7274 0.0000 0.0000 0.0000 -3.9212 -15.5874 -46.7119 2.3473 9.5549 27.5471 0.3650 -4.2452 13.7727 0.2538 -3.2417 -8.9525 0.0000 0.0000 0.0000 -5.1394 4.4231 -94.5162 -4.1251 -12.3251 36.8919 -0.0093 -4.1664 -6.3041 -0.3682 -3.8976 10.7888 6.2963 4.4815 21.3918 11.3912 7.2104 13.6409 7.4648 3.5322 2.3596 -2.8104 -12.8383 -14.5579 -0.7416 -16.9738 -1.2472 -0.8647 -8.6402 2.1944 0.0000 0.0000 0.0000 -86.3917 -5.5833 51.5919 60.9816 -56.5659 -35.1591 -0.0000 0.0000 -13.6189 10.7938 24.5625 4.5312 -7.1250 0.0000 -0.0000 -19.5031 53.8557 -4.3746 0.0000 0.0000 0.0000 -25.0440 43.5670 -42.3956 -10.8617 18.0759 -1.7328 0.0000 0.0000 4.3908 -29.3054 8.9544 -4.9930 7.1250 -0.0000 -0.0000 -1.7043 -19.7395 -1.0290
-0.7716 17.4215 -4.0504 22.5935 28.2037 76.5702 0.0000 0.0000 0.0000 -3.6317 -15.5640 -46.8977 2.3652 9.5886 27.6545 0.3503 -4.3330 13.6238 0.2776 -3.3887 -9.3629 0.0000 0.0000 0.0000 -5.8190 4.4918 -95.1036 -4.1550 -12.3638 37.0314 0.0000 -4.8048 -6.8567 -0.7456 -5.5157 15.3855 6.4211 4.4886 21.0938 11.4508 7.2015 13.6839 7.4935 3.5315 2.5675 -2.5952 -12.8281 -14.5392 -0.7476 -17.0263 -1.7865 -0.8679 -8.6756 1.9857 0.0000 -0.0000 0.0000 -86.2396 -5.6007 51.7396 60.9579 -56.5598 -35.1393 -0.0000 0.0000 -13.6299 10.5933 24.8495 4.4939 -7.1250 0.0000 -0.0000 -19.8589 54.0893 -4.5747 0.0000 -0.0000 0.0000 -26.1841 43.0906 -43.1012 -10.9014 18.1370 -1.7451 0.0000 0.0000 4.7163 -30.3953 8.3532 -4.8708 7.1250 -0.0000 -0.0000 -2.5296 -20.3235 -1.4950
-0.7860 17.3999 -4.0092 22.7249 28.2411 77.1870 0.0000 0.0000 0.0000 -3.2834 -15.4994 -46.8628 2.3843 9.6244 27.7687 0.3380 -4.0653 13.2414 0.2755 -3.3761 -9.3278 0.0000 0.0000 0.0000 -6.4140 4.7081 -95.5738 -4.1967 -12.4176 37.2257 0.0166 -5.4581 -7.2600 -0.7520 -5.5389 15.4524 6.5212 4.5071 21.0429 11.5211 7.2314 13.7316 7.5206 3.5469 2.6496 -2.3473 -12.8076 -14.3420 -0.8284 -17.0848 -2.5584 -0.8702 -8.7178 1.6587 0.0000 0.0000 0.0000 -86.0821 -5.5573 51.8558 60.9751 -56.5642 -35.1536 -0.0000 0.0000 -13.7300 10.5600 25.1769 4.5345 -7.1250 0.0000 -0.0000 -20.0775 54.3910 -4.7788 0.0000 0.0000 0.0000 -27.3148 42.8882 -44.6335 -10.8409 18.0440 -1.7263 0.0000 0.0000 5.7430 -31.3072 7.8142 -4.7270 7.1250 -0.0000 -0.0000 -3.2282 -20.8612 -1.8700
-0.7984 17.3758 -3.9730 22.9658 28.1449 77.8637 0.0000 0.0000 0.0000 -3.1252 -15.5147 -46.8649 2.4016 9.6568 27.8723 0.3326 -3.6293 12.8446 0.2515 -3.2271 -8.9116 0.0000 0.0000 0.0000 -7.3656 4.8387 -96.0397 -4.2521 -12.4885 37.4829 0.0392 -6.2121 -7.7161 -0.8010 -5.7121 15.9512 6.4355 4.5791 20.9364 11.6095 7.3005 13.7260 7.6609 3.5716 2.6678 -2.1804 -12.8395 -14.0226 -0.8534 -17.2041 -3.2941 -0.8406 -8.7871 1.3389 -0.0000 0.0000 0.0000 -85.9990 -5.4098 52.1206 60.9492 -56.5576 -35.1320 -0.0000 0.0000 -13.7156 10.6015 25.0274 4.5274 -7.1250 0.0000 -0.0000 -19.9514 54.2582 -4.6811 -0.0000 0.0000 0.0000 -28.3991 42.7117 -46.5388 -10.6771 17.7917 -1.6759 0.0000 0.0000 7.2586 -32.2556 7.3153 -4.5942 7.1250 -0.0000 -0.0000 -3.9547 -21.3565 -2.2482
-0.8061 17.3461 -3.9466 23.6071 28.1368 78.8013 0.0000 0.0000 0.0000 -3.0637 -15.7682 -47.0571 2.4185 9.6881 27.9725 0.3323 -3.4074 12.6856 0.2319 -3.0996 -8.5562 0.0000 0.0000 0.0000 -8.5409 4.5617 -96.4875 -4.3265 -12.5826 37.8256 0.0733 -7.0904 -8.1432 -0.9127 -6.0873 17.0379 6.4958 4.5291 20.6729 11.7173 7.2330 13.6702 7.7793 3.5399 2.7383 -2.0510 -12.9015 -13.7923 -0.8008 -17.3501 -3.8962 -0.7989 -8.8674 1.0923 0.0000 -0.0000 0.0000 -85.9504 -5.3741 52.4263 60.8855 -56.5413 -35.0789 -0.0000 0.0000 -13.8412 10.5541 24.7809 4.4654 -7.1250 0.0000 -0.0000 -19.8587 54.0176 -4.5393 0.0000 -0.0000 0.0000 -29.4100 42.2650 -47.6163 -10.6169 17.6987 -1.6576 0.0000 0.0000 7.9280 -33.0351 6.6679 -4.3180 7.1250 -0.0000 -0.0000 -4.5779 -22.0501 -2.5323
-0.8156 17.3201 -3.9128 23.9304 28.2335 79.4491 0.0000 0.0000 0.0000 -2.9283 -15.6378 -47.1361 2.4415 9.7307 28.1090 0.3278 -3.2771 12.5257 0.2239 -3.0457 -8.4060 0.0000 0.0000 0.0000 -9.3889 4.5358 -96.8699 -4.4214 -12.7009 38.2591 0.1027 -7.7791 -8.5060 -0.9597 -6.2378 17.4761 6.6515 4.5339 20.5314 11.8439 7.2493 13.7090 7.8494 3.5513 2.8580 -1.7048 -12.9536 -13.5934 -0.9559 -17.5249 -4.6046 -0.8426 -8.9706 0.7798 -0.0000 -0.0000 0.0000 -85.8890 -5.4126 52.6069 60.8483 -56.5318 -35.0479 -0.0000 0.0000 -14.0054 10.0983 25.0016 4.3046 -7.1250 0.0000 -0.0000 -20.4295 54.1408 -4.7409 -0.0000 -0.0000 0.0000 -30.3355 41.6544 -47.9819 -10.6829 17.8005 -1.6777 0.0000 0.0000 7.9968 -33.5426 5.7738 -3.8156 7.1250 -0.0000 -0.0000 -5.0313 -23.0694 -2.6674
-0.8276 17.2971 -3.8744 24.0831 28.2561 79.9248 0.0000 0.0000 0.0000 -2.9879 -15.1751 -47.1673 2.4686 9.7805 28.2688 0.3215 -3.2432 12.4042 0.2386 -3.1433 -8.6781 0.0000 0.0000 0.0000 -10.1967 4.6543 -97.2546 -4.5346 -12.8398 38.7715 0.1165 -8.2729 -9.0391 -1.0215 -6.4297 18.0364 6.7465 4.5711 20.5217 11.9168 7.3055 13.7635 7.8749 3.5793 2.9238 -1.4430 -12.9577 -13.3596 -0.9480 -17.6173 -5.3083 -0.8213 -9.0277 0.4892 0.0000 -0.0000 0.0000 -85.7641 -5.3539 52.7581 60.9671 -56.5622 -35.1470 -0.0000 0.0000 -13.8816 9.7321 25.4195 4.2105 -7.1250 0.0000 -0.0000 -21.0304 54.4631 -5.0587 0.0000 -0.0000 0.0000 -31.0688 41.1455 -48.3872 -10.7608 17.9207 -1.7016 0.0000 0.0000 8.3094 -34.0184 5.0112 -3.3742 7.1250 -0.0000 -0.0000 -5.4527 -23.9448 -2.7825
